# xmcd
#
# Track frame offsets:
#	150
#	18306
#	35414
#	50571
#	80128
#	96786
#	117231
#	135088
#	154140
#	172447
#	189704
#	204261
#
# Disc length: 2977 seconds
# Revision: 0
# Processed by: cddbd v1.5.2PL0 Copyright (c) Steve Scherf et al.
# Submitted via: dBpowerAMP V12.0
#
DISCID=a00b9f0c
DTITLE=Chely Wright - The Metropolitan Hotel
DYEAR=1900
DGENRE=
TTITLE0=It's The Song
TTITLE1=Back Of The Bottom Drawer
TTITLE2=I Got Him Ready For You
TTITLE3=The River
TTITLE4=Just The Way We Do It
TTITLE5=On the Bumper of my SUV
TTITLE6=Your Shirt
TTITLE7=Between A Mother And A Child
TTITLE8=South Side Of Lonesome
TTITLE9=Wheels
TTITLE10=Cest La Vie (You Never Can Tell)
TTITLE11=What If I Cant Say No Again
EXTD=
EXTT0=
EXTT1=
EXTT2=
EXTT3=
EXTT4=
EXTT5=
EXTT6=
EXTT7=
EXTT8=
EXTT9=
EXTT10=
EXTT11=
PLAYORDER=
